<?xml version="1.0" encoding="utf-8"?>
<!-- Generator: Adobe Illustrator 19.0.0, SVG Export Plug-In . SVG Version: 6.00 Build 0)  -->
<svg version="1.1" id="Layer_1" xmlns="http://www.w3.org/2000/svg" xmlns:xlink="http://www.w3.org/1999/xlink" x="0px" y="0px"
	 viewBox="0 0 345.2 252.6" style="enable-background:new 0 0 345.2 252.6;" xml:space="preserve">
<style type="text/css">
	.st0{fill:#002762;}
	.st1{fill:#FFFFFF;}
	.st2{fill:#F19000;}
	.st3{opacity:0.8;}
</style>
<g>
	<g>
		<g>
			<path class="st0" d="M92.8,252.6c-17.9,0-33.5-13.3-36.4-30.9l-3.5-21.6c-5.4-3.4-9.8-8.3-12.8-13.9c-22.8-4-37.2-21.7-37.2-46.4
				c0-23.6,13.7-41.4,34.7-46.1c1.9-10.4,8.2-19.7,17.3-25.2l4.3-21.7c3.4-17.2,18.6-29.7,36.2-29.7c2.4,0,4.8,0.2,7.1,0.7L178,32.7
				c5.9-14.4,19.9-24.2,36.1-24.2c12.4,0,24.1,5.9,31.5,15.9c2.5,2.7,4.6,5.8,6.3,9.2l30.4-5c2-0.3,4-0.5,5.9-0.5
				c17.9,0,33.5,13.3,36.4,30.9l0.7,4.1c14.3,7.4,22.5,23.7,19.3,39.9l-7,35.4l5.9,36.3c2.7,16.5-6.1,32.5-20.8,39.4l-0.8,4
				c-3.4,17.2-18.6,29.7-36.2,29.7c0,0,0,0,0,0c-2.4,0-4.8-0.2-7.1-0.7l-67.6-13.3L98.8,252.2C96.8,252.5,94.8,252.6,92.8,252.6z"/>
		</g>
		<g>
			<path class="st1" d="M90,244.1c-17.9,0-33.5-13.3-36.4-30.9l-3.5-21.6c-5.4-3.4-9.8-8.3-12.8-13.9C14.4,173.7,0,156,0,131.3
				C0,107.7,13.7,90,34.7,85.2C36.6,74.9,42.9,65.5,52,60l4.3-21.7C59.7,21.1,74.9,8.6,92.5,8.6c2.4,0,4.8,0.2,7.1,0.7l75.6,14.9
				C181,9.8,195.1,0,211.3,0c12.4,0,24.1,5.9,31.5,15.9c2.5,2.7,4.6,5.8,6.3,9.2l30.4-5c2-0.3,4-0.5,5.9-0.5
				c17.9,0,33.5,13.3,36.4,30.9l0.7,4.1c14.3,7.4,22.5,23.7,19.3,39.9l-7,35.4l5.9,36.3c2.7,16.5-6.1,32.5-20.8,39.4l-0.8,4
				c-3.4,17.2-18.6,29.7-36.2,29.7c0,0,0,0,0,0c-2.4,0-4.8-0.2-7.1-0.7l-67.6-13.3L95.9,243.6C94,244,92,244.1,90,244.1z"/>
		</g>
	</g>
	<g>
		<g>
			<g>
				<path class="st2" d="M47.3,170c-23.6,0-38.8-15.2-38.8-38.7c0-23.2,15.2-38.8,37.8-38.8c22.8,0,37.5,15,37.5,38.2
					c0,1.9-0.1,3.7-0.2,5.2c-0.1,0.9-0.2,1.8-0.4,2.7c0.1,1.4,0.1,2.9-0.2,4.3C79.4,160.2,66.4,170,47.3,170z"/>
			</g>
			<g>
				<path class="st2" d="M100.3,169.9c-3.7,0-7-0.5-9.9-1.3c-1.2,0.4-2.5,0.5-3.9,0.5h-10c-7.8,0-14.2-6.3-14.2-14.2v-16.9
					c0-2.3,0.5-4.4,1.5-6.3c-1.1-3-1.8-6.6-1.8-10.8c0-16.8,12.8-28.5,31.2-28.5c3.7,0,7,0.5,9.8,1.5c0.9-0.2,1.7-0.2,2.6-0.2h9.6
					c7.8,0,14.2,6.3,14.2,14.2V123c0,1.7-0.3,3.4-0.9,4.9c1.7,3.5,2.7,7.7,2.7,12.9C131.2,157.7,118.2,169.9,100.3,169.9z"/>
			</g>
			<g>
				<path class="st2" d="M146.9,169.9c-3.7,0-7-0.5-9.9-1.3c-1.2,0.4-2.5,0.5-3.9,0.5h-10c-7.8,0-14.2-6.3-14.2-14.2v-16.9
					c0-2.3,0.5-4.4,1.5-6.3c-1.1-3-1.8-6.6-1.8-10.8c0-16.8,12.8-28.5,31.2-28.5c3.7,0,7,0.5,9.8,1.5c0.9-0.2,1.7-0.2,2.6-0.2h9.6
					c7.8,0,14.2,6.3,14.2,14.2V123c0,1.7-0.3,3.4-0.9,4.9c1.7,3.5,2.7,7.7,2.7,12.9C177.8,157.7,164.8,169.9,146.9,169.9z"/>
			</g>
			<g>
				<path class="st2" d="M194.2,170c-23.6,0-38.8-15.2-38.8-38.7c0-23.2,15.2-38.8,37.8-38.8c22.8,0,37.5,15,37.5,38.2
					c0,1.9-0.1,3.7-0.2,5.2c-0.1,0.9-0.2,1.8-0.4,2.7c0.2,1.4,0.1,2.9-0.2,4.4C226.2,160.2,213.2,170,194.2,170z"/>
			</g>
			<g>
				<path class="st2" d="M248.4,168.8c-1,0-2-0.1-3-0.3c-1,0.2-2,0.3-3,0.3h-23.3c-7.8,0-14.2-6.3-14.2-14.2v-9.4
					c0-7,5-12.8,11.7-14l0.6-0.6c-6.4-1.4-11.1-7.1-11.1-13.8v-9.1c0-7.8,6.3-14.2,14.2-14.2h24.2c1,0,2,0.1,2.9,0.3
					c0.9-0.2,1.9-0.3,2.9-0.3h22.3c7.8,0,14.2,6.3,14.2,14.2v9.1c0,6.8-4.8,12.5-11.2,13.9l0.6,0.6c6.6,1.2,11.6,7,11.6,13.9v9.4
					c0,7.8-6.3,14.2-14.2,14.2H248.4z"/>
			</g>
		</g>
		<path class="st2" d="M332.2,167.6c2.5,15.4-8,30-23.4,32.6L94.6,235.3c-15.4,2.5-30-8-32.6-23.4L43,96.2c-2.5-15.4,8-30,23.4-32.6
			l214.3-35.1c15.4-2.5,30,8,32.6,23.4L332.2,167.6z"/>
		<g class="st3">
			<path class="st0" d="M310.6,207.9c-3,15.3-18,25.3-33.3,22.3l-213-41.9C49,185.3,39,170.3,42,155L64.6,40
				c3-15.3,18-25.3,33.3-22.3l213,41.9c15.3,3,25.3,18,22.3,33.3L310.6,207.9z"/>
		</g>
		<g>
			<path class="st1" d="M69.1,140.1c-2.2,10.7-9.4,15.8-21.7,15.8c-15.7,0-24.7-9.1-24.7-24.6c0-15.3,9.1-24.7,23.6-24.7
				c14.9,0,23.3,8.6,23.3,24.1c0,1.4-0.1,2.8-0.2,4.2H36.2c0,7.4,3.8,11.5,10.6,11.5c5,0,8.3-2.1,10-6.3H69.1z M56.5,126.4
				c0-0.3,0-0.6,0-1c0-5.5-4.1-9.5-10.1-9.5c-6,0-10.2,4.2-10.2,10.5H56.5z"/>
			<path class="st1" d="M76.5,155v-16.9h10c1.5,5.4,4.8,8.2,10.2,8.2c4,0,6.5-2,6.5-4.6c0-3.5-4.1-4.3-12.4-6.3
				c-10.2-2.4-14.6-4.9-14.6-14.3c0-8.7,6.4-14.3,17-14.3c5.6,0,9.7,2,12.5,5.9v-4.7h9.6V123h-9.6c-0.7-4.5-4.2-7.4-9.6-7.4
				c-3.8,0-6.1,1.8-6.1,4.4c0,4,4.6,4.6,14,6.6c9,1.9,13.1,5.9,13.1,14.2c0,9.1-6.5,15-16.8,15c-6.3,0-10.9-2.2-13.8-6.7v5.9H76.5z"
				/>
			<path class="st1" d="M123.1,155v-16.9h10c1.5,5.4,4.8,8.2,10.2,8.2c4,0,6.5-2,6.5-4.6c0-3.5-4.1-4.3-12.4-6.3
				c-10.2-2.4-14.6-4.9-14.6-14.3c0-8.7,6.4-14.3,17-14.3c5.6,0,9.7,2,12.5,5.9v-4.7h9.6V123h-9.6c-0.7-4.5-4.2-7.4-9.6-7.4
				c-3.8,0-6.1,1.8-6.1,4.4c0,4,4.6,4.6,14,6.6c9,1.9,13.1,5.9,13.1,14.2c0,9.1-6.5,15-16.8,15c-6.3,0-10.9-2.2-13.8-6.7v5.9H123.1z
				"/>
			<path class="st1" d="M215.9,140.1c-2.2,10.7-9.4,15.8-21.7,15.8c-15.7,0-24.7-9.1-24.7-24.6c0-15.3,9.1-24.7,23.6-24.7
				c14.9,0,23.3,8.6,23.3,24.1c0,1.4-0.1,2.8-0.2,4.2H183c0,7.4,3.8,11.5,10.6,11.5c5,0,8.3-2.1,10-6.3H215.9z M203.3,126.4
				c0-0.3,0-0.6,0-1c0-5.5-4.1-9.5-10.1-9.5c-6,0-10.2,4.2-10.2,10.5H203.3z"/>
			<path class="st1" d="M219.2,145.3h3.6l15.6-15.7l-14-12.7h-4.1v-9.1h24.2v9.1h-4.3l7.3,7.8l7-7.8h-4.2v-9.1h22.3v9.1h-4.2
				l-13.8,12.9l15.5,15.5h3.5v9.4h-25.2v-9.4h5.9l-8.9-9.6l-9,9.6h5.9v9.4h-23.3V145.3z"/>
		</g>
		<g>
			<path class="st1" d="M180.8,203.1v2.2h-11.3v-2.2h4v-29.8h-4v-2.2h6.9v4c2.3-3.2,5.1-4.6,8.8-4.6c6.4,0,11.1,5,11.1,13.2
				c0,8-4.7,13.1-11.2,13.1c-3.5,0-6.3-1.5-8.6-4.6v11H180.8z M184.7,194.3c5,0,8.4-4,8.4-10.9c0-6.6-3.3-10.6-8.4-10.6
				c-5,0-8.3,4-8.3,10.7C176.4,190.3,179.8,194.3,184.7,194.3z"/>
			<path class="st1" d="M219,192.4c-2.5,3.1-5.4,4.6-9.2,4.6c-5.5,0-8.8-3-8.8-7.7c0-5.4,4.1-8.3,12.3-8.3c1.3,0,3.1,0.2,5.6,0.4
				v-2.7c0-3.9-2.3-5.9-6.8-5.9c-4.3,0-6.4,1.6-7,5.5h-3.1c0.5-5.1,4-7.9,10.1-7.9c6.6,0,9.9,2.8,9.9,9v14.6h4.1v2.2H219V192.4z
				 M214.3,183.3c-6.8,0-10.2,1.9-10.2,5.8c0,3.2,2.4,5.5,6.4,5.5c5.3,0,8.5-3.7,8.5-9.7v-1.4C217.1,183.4,215.6,183.3,214.3,183.3z
				"/>
			<path class="st1" d="M229.5,187.6h2.2c0.6,4.5,3.7,7,8,7c4.1,0,6.8-1.9,6.8-5.1c0-2.5-1.7-3.9-5.1-4.4l-4.2-0.7
				c-5.1-0.8-7.4-2.7-7.4-6.5c0-4.2,3.6-7.4,8.9-7.4c3.2,0,5.9,1.1,8,3.1v-2.5h2.2v8.2h-2.2c-0.3-4.2-3.4-6.4-8.1-6.4
				c-3.6,0-5.8,1.8-5.8,4.6c0,2.8,1.7,3.6,5.5,4.2l4,0.7c4.7,0.8,7.2,3,7.2,6.6c0,4.6-3.9,7.9-9.7,7.9c-3.4,0-5.9-1-8.3-3.5v2.8
				h-2.2V187.6z"/>
			<path class="st1" d="M253.9,187.6h2.2c0.6,4.5,3.7,7,8,7c4.1,0,6.8-1.9,6.8-5.1c0-2.5-1.7-3.9-5.1-4.4l-4.2-0.7
				c-5.1-0.8-7.4-2.7-7.4-6.5c0-4.2,3.6-7.4,8.9-7.4c3.2,0,5.9,1.1,8,3.1v-2.5h2.2v8.2h-2.2c-0.3-4.2-3.4-6.4-8.1-6.4
				c-3.6,0-5.8,1.8-5.8,4.6c0,2.8,1.7,3.6,5.5,4.2l4,0.7c4.7,0.8,7.2,3,7.2,6.6c0,4.6-3.9,7.9-9.7,7.9c-3.4,0-5.9-1-8.3-3.5v2.8
				h-2.2V187.6z"/>
		</g>
		<g>
			<path class="st1" d="M89.4,75.5h-3.2v-1.7h3.2v-4.3l2.2-0.8v5.1h6.1v1.7h-6.1v13.6c0,1.6,0.8,2.4,2.3,2.4c2,0,2.9-1.3,2.9-4.2
				h1.7c0,0.1,0,0.3,0,0.4c0,3.7-1.6,5.5-4.7,5.5c-2.9,0-4.3-1.6-4.3-4.7V75.5z"/>
			<path class="st1" d="M100.3,67.3v-1.7h5.5v11c1.8-2.3,3.8-3.3,6.6-3.3c4.3,0,6.2,2.1,6.2,6.6v11.2h3.2v1.7h-9v-1.7h3.6V79.9
				c0-3.3-1.3-4.8-4.4-4.8c-3.5,0-6.1,2.5-6.1,6.2v9.8h3.5v1.7h-9v-1.7h3.2V67.3H100.3z"/>
			<path class="st1" d="M126.5,83.7c0.2,5,2.6,7.8,6.7,7.8c3.4,0,5.6-1.6,6.2-4.5h1.8c-0.5,3.9-3.4,6.3-7.9,6.3
				c-5.8,0-9.2-3.7-9.2-10.1c0-6,3.5-9.8,8.9-9.8c5.3,0,8.6,3.7,8.6,10c0,0.1,0,0.2,0,0.3H126.5z M132.8,75.1
				c-3.6,0-5.8,2.4-6.4,6.9h12.8C138.9,77.4,136.7,75.1,132.8,75.1z"/>
		</g>
		<path class="st1" d="M211.3,8.5c-16.9,0-30.5,13.7-30.5,30.5c0,23.4,30.5,52.5,30.5,52.5s30.5-29.1,30.5-52.5
			C241.8,22.2,228.1,8.5,211.3,8.5z M211.3,55.7c-9.1,0-16.6-7.4-16.6-16.6s7.4-16.6,16.6-16.6c9.1,0,16.6,7.4,16.6,16.6
			S220.4,55.7,211.3,55.7z"/>
		<path class="st2" d="M213.9,11.8c-16.9,0-30.5,13.7-30.5,30.5c0,23.4,30.5,52.5,30.5,52.5s30.5-29.1,30.5-52.5
			C244.5,25.4,230.8,11.8,213.9,11.8z M213.9,59c-9.1,0-16.6-7.4-16.6-16.6s7.4-16.6,16.6-16.6c9.1,0,16.6,7.4,16.6,16.6
			S223.1,59,213.9,59z"/>
		<path class="st1" d="M211.3,8.5c-16.9,0-30.5,13.7-30.5,30.5c0,23.4,30.5,52.5,30.5,52.5s30.5-29.1,30.5-52.5
			C241.8,22.2,228.1,8.5,211.3,8.5z M211.3,55.7c-9.1,0-16.6-7.4-16.6-16.6s7.4-16.6,16.6-16.6c9.1,0,16.6,7.4,16.6,16.6
			S220.4,55.7,211.3,55.7z"/>
	</g>
</g>
</svg>

